<?xml version="1.0" encoding="utf-8"?>
<!-- Designed by Vexels.com - 2016 All Rights Reserved - https://vexels.com/terms-and-conditions/  -->

<svg version="1.1" id="Layer_1" xmlns="http://www.w3.org/2000/svg" xmlns:xlink="http://www.w3.org/1999/xlink" x="0px" y="0px"
	 width="1200px" height="1200px" viewBox="0 0 1200 1200" enable-background="new 0 0 1200 1200" xml:space="preserve">
<path fill="#fff" d="M1076.557,700.967c-73.721,29.664-169.357,99.402-177.074,102.55c-7.593,3.117-40.377,50.35,23.895,67.822
	c-39.947,48.096-202.635,137.19-323.029,108.477c30.315-151.943,73.288-367.449,100.884-505.594l110.146,22.011
	c5.187,24.356,24.265,44.547,50.256,49.731c34.76,6.917,68.533-15.619,75.51-50.379c6.917-34.76-15.618-68.565-50.379-75.478
	c-25.994-5.156-51.368,6.142-65.447,26.642L711.112,424.77c8.336-41.923,14.2-71.252,16.239-81.345
	c54.27-13.46,98.722-56.831,110.393-115.331c16.112-80.634-36.242-159.137-116.936-175.19
	C640.173,36.821,561.701,89.147,545.646,169.81c-12.284,61.588,15.376,121.814,65.075,154.013
	c-2.529,12.471-7.962,39.916-15.556,77.824L489.03,380.47c-5.184-24.388-24.325-44.578-50.256-49.794
	c-34.76-6.885-68.533,15.651-75.51,50.41c-6.913,34.731,15.623,68.533,50.382,75.447c25.991,5.219,51.368-6.079,65.445-26.61
	l106.195,21.148c-27.537,138.208-70.572,353.683-100.887,505.594c-122.244-19.694-238.194-164.353-256.655-224.118
	c66.061,8.488,53.9-47.695,48.033-53.499c-5.804-5.864-67.421-106.935-124.096-162.624c-56.619-55.69-51.678,13.059-51.678,13.059
	s-17.042,97.085-25.068,172.563c-8.086,75.478,64.705,50.29,64.705,50.29c44.145,223.748,277.402,342.752,328.707,378.687
	c15.682,11.02,28.279,15.679,38.157,16.823c9.632,2.715,23.029,3.303,41.796-0.835c61.064-13.552,322.163-33.897,448.795-223.564
	c0,0,57.542,51.185,79.088-21.606c21.486-72.826,43.036-168.988,43.036-168.988S1150.212,671.269,1076.557,700.967z
	 M704.259,136.039c34.7,6.913,57.295,40.747,50.319,75.447c-6.853,34.76-40.624,57.295-75.446,50.379
	c-34.76-6.945-57.296-40.718-50.319-75.478C635.729,151.658,669.499,129.063,704.259,136.039z"/>
</svg>
