<svg version="1.1" id="Layer_1" xmlns="http://www.w3.org/2000/svg" xmlns:xlink="http://www.w3.org/1999/xlink" x="0px" y="0px"
	 width="100%" viewBox="0 0 1024 1024" enable-background="new 0 0 1024 1024" xml:space="preserve">
<path fill="#fff" opacity="1.000000" stroke="none" 
	d="
M622.589172,589.213013 
	C630.292908,587.219360 637.638916,586.650696 645.217163,587.583740 
	C661.047546,589.532654 669.382629,602.154846 664.563721,617.412537 
	C660.819458,629.267456 653.907410,639.184021 645.626282,648.249268 
	C630.834412,664.441711 613.027710,676.652832 593.977600,687.192993 
	C574.302063,698.079163 554.318298,708.448486 537.123962,723.269470 
	C529.514709,729.828552 522.681580,737.099121 516.418579,744.901367 
	C514.098694,747.791382 512.391052,748.547913 509.880096,745.233948 
	C492.759277,722.638062 469.814087,707.435669 445.188934,694.351624 
	C424.401062,683.306396 404.108704,671.495300 386.895660,655.134094 
	C377.153687,645.874207 368.773621,635.590881 363.378052,623.131287 
	C354.139282,601.797058 365.273682,586.385071 389.331238,587.048340 
	C394.755554,587.197998 400.272797,587.823486 405.519348,589.737488 
	C414.022827,592.839661 417.162720,599.701782 413.683594,608.001953 
	C411.779236,612.545227 408.884369,616.429993 405.095245,619.513733 
	C402.151062,621.909790 402.140350,624.115540 404.062561,627.215759 
	C411.911224,639.873657 423.286804,648.824341 435.335785,656.961121 
	C454.720673,670.051880 475.938477,679.864990 496.663452,690.546997 
	C497.082123,690.762756 497.616425,690.754150 498.155151,690.861877 
	C500.108887,689.178345 499.613617,686.886658 499.614410,684.826538 
	C499.630371,643.162048 499.616089,601.497498 499.563232,559.833008 
	C499.554138,552.656799 499.435028,552.920837 492.252808,552.241455 
	C464.367584,549.604126 444.175812,534.255981 439.318512,509.890198 
	C434.364471,485.039093 445.280182,463.120667 469.155273,457.178040 
	C476.250214,455.412048 483.345337,456.005127 490.436188,457.216370 
	C492.851135,457.628937 495.262512,458.062561 498.381622,458.610596 
	C499.010803,451.244537 498.949646,444.315704 498.490356,437.414276 
	C498.329590,434.998779 495.607300,434.980774 493.818329,434.290741 
	C472.687012,426.139587 458.413208,411.586731 452.470428,389.507324 
	C443.311676,355.479523 464.295013,321.769348 499.827148,313.147125 
	C532.125061,305.309692 566.416016,326.779572 573.955383,359.559387 
	C580.832947,389.462280 564.171082,420.740723 534.792358,433.077789 
	C527.293274,436.226868 527.283752,436.226898 527.296021,444.540253 
	C527.301880,448.539032 527.334473,452.538086 527.405151,456.536102 
	C527.413208,456.992432 527.746460,457.442993 528.097351,458.314636 
	C532.590088,457.711365 537.129639,457.065491 541.678772,456.496887 
	C568.416077,453.154877 589.514343,474.783325 587.762207,501.856873 
	C586.318542,524.164062 569.411804,546.714905 540.091064,551.345886 
	C538.118530,551.657471 536.151001,552.051086 534.165283,552.220337 
	C526.433533,552.879517 526.432922,552.851624 526.431213,560.846252 
	C526.422180,602.010742 526.404480,643.175293 526.426880,684.339783 
	C526.427917,686.279663 525.884888,688.337585 527.298462,690.420227 
	C530.427185,690.807251 532.743103,688.545471 535.295227,687.304138 
	C555.967041,677.249878 576.795715,667.459900 595.536438,653.916931 
	C605.308044,646.855530 614.346619,639.096558 621.109131,628.897583 
	C623.773621,624.879089 624.140381,621.903503 619.961853,618.752869 
	C617.887695,617.188904 616.227234,614.941101 614.739441,612.757507 
	C607.467163,602.084290 610.103638,593.966919 622.589172,589.213013 
M479.371735,369.009033 
	C479.334076,370.174377 479.280396,371.339417 479.261078,372.505066 
	C478.963470,390.466644 491.072754,405.040070 509.077026,408.394318 
	C522.858765,410.961884 539.071777,400.556885 544.742981,385.120239 
	C549.169983,373.070190 547.314331,361.681244 539.123291,351.827728 
	C531.085876,342.159027 520.432007,338.194458 507.953491,340.136047 
	C491.866791,342.639038 482.693359,352.437256 479.371735,369.009033 
M472.596161,528.915710 
	C478.711945,532.241638 485.194916,533.950562 492.210297,533.679260 
	C498.183807,533.448181 498.903900,532.928589 498.927734,527.089783 
	C498.975952,515.277527 498.907837,503.464752 498.921234,491.652252 
	C498.935974,478.655731 498.315704,477.811920 485.766388,474.212097 
	C485.287079,474.074615 484.819183,473.893646 484.335632,473.775330 
	C470.581848,470.410126 459.305939,477.442596 456.250702,491.286133 
	C452.878662,506.565338 458.437897,519.781616 472.596161,528.915710 
M560.686951,476.716522 
	C551.013733,469.327545 536.127625,474.568817 528.749878,479.356842 
	C526.949890,480.524994 527.041870,482.471222 527.042358,484.310699 
	C527.046021,498.807159 527.144653,513.304321 527.018738,527.799561 
	C526.983948,531.810547 528.517517,533.520081 532.523254,533.676025 
	C543.225708,534.093018 552.580505,530.856018 560.352051,523.524170 
	C573.798706,510.838348 574.156921,488.952454 560.686951,476.716522 
z"/>
<path fill="#fff" opacity="1.000000" stroke="none" 
	d="
M767.865601,475.643707 
	C735.140869,507.328735 697.599548,530.508606 654.880188,545.252319 
	C637.088745,551.392761 619.057800,556.661621 600.463928,559.814575 
	C599.643677,559.953674 598.821960,560.187805 597.999878,560.192261 
	C595.559265,560.205444 592.639954,561.071350 591.115295,558.525330 
	C589.601807,555.997986 592.184143,554.251465 593.323181,552.375000 
	C603.957581,534.856567 609.672668,515.999512 608.611206,495.396088 
	C608.267456,488.723175 606.758057,482.147583 603.408875,476.277283 
	C600.587708,471.332489 601.165283,466.993042 603.931213,462.226501 
	C618.228882,437.587524 639.283264,420.485626 664.233704,407.678894 
	C695.417419,391.672699 728.458313,380.032227 760.763000,366.657928 
	C778.166748,359.452667 795.409729,351.905273 810.442871,340.186005 
	C814.146240,337.298981 817.259338,338.849396 817.213745,343.825653 
	C816.971130,370.275574 810.432983,394.269196 789.161987,412.081451 
	C770.800781,427.457031 749.383301,437.594818 727.640808,446.960114 
	C706.391968,456.112701 684.830505,464.539612 662.095703,473.820099 
	C670.532166,474.316406 677.474670,473.055725 684.407532,472.308685 
	C704.751099,470.116577 725.059204,467.504608 745.540771,467.041016 
	C751.852051,466.898224 758.194092,467.333984 764.497009,467.826111 
	C770.498901,468.294708 771.372437,470.345093 767.865601,475.643707 
z"/>
<path fill="#fff" opacity="1.000000" stroke="none" 
	d="
M233.592163,409.435150 
	C219.136963,397.736389 214.747559,381.280762 210.794800,364.662506 
	C209.334045,358.521210 208.349838,352.264282 208.681732,345.887054 
	C208.813416,343.357025 208.875763,340.617767 211.274643,339.225159 
	C213.810654,337.753021 215.610733,339.994751 217.417587,341.350220 
	C235.633087,355.015259 256.637360,363.146545 277.464203,371.616333 
	C307.222626,383.718353 337.484100,394.653564 365.982239,409.676849 
	C390.001526,422.339081 409.369171,439.785431 422.101410,464.146088 
	C424.645721,469.014191 424.901276,473.240692 422.317749,478.251709 
	C415.447418,491.577515 416.506073,505.648529 419.612823,519.688171 
	C422.182983,531.302917 426.522949,542.255371 432.743317,552.448914 
	C433.856598,554.273376 436.507416,556.097717 434.490631,558.572876 
	C432.746521,560.713440 429.965607,560.464111 427.476624,559.990479 
	C419.317169,558.437683 411.074188,557.182190 403.045197,555.108459 
	C353.269714,542.252319 308.246918,520.098511 269.405579,486.054321 
	C265.527527,482.655212 261.845795,479.023987 258.193878,475.379364 
	C256.938141,474.126129 255.374619,472.660278 256.027832,470.619904 
	C256.764130,468.319977 259.144257,468.017700 261.004578,467.962128 
	C270.319153,467.683716 279.602448,466.724274 288.952667,467.119415 
	C314.644196,468.205170 340.074585,472.206726 365.943024,473.240448 
	C352.198486,467.832489 338.469299,462.385223 324.706238,457.024963 
	C297.528168,446.440063 270.434296,435.678528 246.224350,418.990784 
	C241.978592,416.064178 237.976532,412.784119 233.592163,409.435150 
z"/>
</svg>