<?xml version="1.0" encoding="UTF-8" standalone="no"?>
<svg
   width="270.00"
   height="236.51"
   viewBox="0 0 270.00 236.51"
   version="1.1"
   id="svg5"
   sodipodi:docname="diagonal_connected_5hex.svg"
   inkscape:version="1.3.2 (091e20e, 2023-11-25)"
   xmlns:inkscape="http://www.inkscape.org/namespaces/inkscape"
   xmlns:sodipodi="http://sodipodi.sourceforge.net/DTD/sodipodi-0.dtd"
   xmlns="http://www.w3.org/2000/svg"
   xmlns:svg="http://www.w3.org/2000/svg">
  <defs
     id="defs5" />
  <sodipodi:namedview
     id="namedview5"
     pagecolor="#505050"
     bordercolor="#eeeeee"
     borderopacity="1"
     inkscape:showpageshadow="0"
     inkscape:pageopacity="0"
     inkscape:pagecheckerboard="0"
     inkscape:deskcolor="#d1d1d1"
     inkscape:zoom="0.99784367"
     inkscape:cx="134.79065"
     inkscape:cy="118.255"
     inkscape:window-width="1312"
     inkscape:window-height="449"
     inkscape:window-x="59"
     inkscape:window-y="38"
     inkscape:window-maximized="0"
     inkscape:current-layer="svg5" />
  <polygon
     points="110.00,96.60 85.00,139.90 35.00,139.90 10.00,96.60 35.00,53.30 85.00,53.30"
     fill="none"
     stroke="#F8D64E"
     stroke-width="3"
     id="polygon1" />
  <polygon
     points="185.00,53.30 160.00,96.60 110.00,96.60 85.00,53.30 110.00,10.00 160.00,10.00"
     fill="none"
     stroke="#F8D64E"
     stroke-width="3"
     id="polygon2" />
  <polygon
     points="110.00,183.21 85.00,226.51 35.00,226.51 10.00,183.21 35.00,139.90 85.00,139.90"
     fill="none"
     stroke="#F8D64E"
     stroke-width="3"
     id="polygon3" />
  <polygon
     points="185.00,139.90 160.00,183.21 110.00,183.21 85.00,139.90 110.00,96.60 160.00,96.60"
     fill="none"
     stroke="#F8D64E"
     stroke-width="3"
     id="polygon4" />
  <polygon
     points="260.00,96.60 235.00,139.90 185.00,139.90 160.00,96.60 185.00,53.30 235.00,53.30"
     fill="none"
     stroke="#F8D64E"
     stroke-width="3"
     id="polygon5" />
</svg>
