<?xml version="1.0" standalone="no"?>
<!DOCTYPE svg PUBLIC "-//W3C//DTD SVG 20010904//EN"
 "http://www.w3.org/TR/2001/REC-SVG-20010904/DTD/svg10.dtd">
<svg version="1.0" xmlns="http://www.w3.org/2000/svg"
 width="1920.000000pt" height="1200.000000pt" viewBox="0 0 1920.000000 1200.000000"
 preserveAspectRatio="xMidYMid meet">

<g transform="translate(0.000000,1200.000000) scale(0.100000,-0.100000)"
fill="#fff" stroke="none">
<path d="M53 11948 c-20 -25 -23 -135 -8 -298 32 -370 147 -767 310 -1075 210
-396 576 -807 928 -1044 361 -242 724 -400 1287 -562 96 -28 225 -66 285 -84
93 -28 228 -62 418 -104 20 -5 37 -7 37 -5 0 3 -41 44 -92 92 -130 123 -194
193 -285 307 -187 236 -280 409 -383 710 -83 246 -37 200 -373 368 -550 275
-913 513 -1297 849 -227 199 -478 463 -670 703 -71 89 -131 155 -141 155 -4 0
-11 -6 -16 -12z"/>
<path d="M18962 11778 c-364 -447 -762 -808 -1235 -1123 -203 -134 -495 -303
-687 -396 -335 -162 -309 -146 -336 -214 -170 -441 -175 -451 -337 -715 -92
-149 -210 -283 -425 -484 -46 -43 -81 -80 -79 -83 3 -2 38 5 79 16 40 11 143
38 228 60 260 67 826 248 1050 336 441 174 927 500 1175 787 169 196 307 390
408 573 197 358 355 918 360 1281 2 106 -7 134 -43 134 -10 0 -74 -70 -158
-172z"/>
<path d="M2390 10944 c-34 -88 29 -617 93 -784 113 -296 248 -596 325 -725
102 -171 278 -383 433 -524 95 -85 142 -120 241 -173 218 -119 418 -189 622
-217 44 -6 82 -14 85 -17 16 -15 -32 -24 -99 -19 -185 16 -351 65 -559 166
-197 95 -210 98 -172 35 10 -17 34 -67 52 -111 61 -148 217 -382 322 -482 143
-135 253 -205 446 -283 147 -59 159 -62 436 -100 264 -36 268 -37 241 -52 -24
-13 -159 -5 -368 22 -84 11 -156 20 -160 20 -3 0 -5 -11 -4 -25 6 -50 294
-362 434 -469 86 -66 207 -127 337 -171 129 -44 220 -88 228 -110 8 -20 10
-20 -91 19 -48 18 -125 46 -172 61 -106 34 -222 92 -320 158 -100 68 -359 327
-401 402 -28 50 -35 56 -58 52 -393 -77 -666 -109 -1106 -128 -475 -20 -768 8
-1145 112 -151 41 -174 42 -178 7 -7 -55 131 -278 263 -425 139 -156 276 -264
479 -381 504 -287 1125 -304 2026 -53 80 22 199 59 265 81 163 56 222 60 358
25 58 -15 111 -24 117 -20 7 4 9 16 7 27 -6 20 -6 20 16 0 48 -43 65 -46 247
-46 140 -1 198 4 290 21 153 30 275 66 365 108 86 41 96 43 66 11 -12 -12 -61
-41 -109 -64 -136 -64 -222 -86 -539 -138 -18 -3 -33 -8 -33 -12 1 -13 88 -73
157 -108 81 -40 220 -88 320 -108 148 -31 410 -41 503 -19 23 6 24 5 11 -11
-33 -40 -80 -50 -226 -50 -200 0 -348 34 -552 129 -101 47 -167 89 -230 147
-24 21 -49 38 -57 38 -44 0 -223 23 -238 31 -25 14 -85 -10 -318 -124 -242
-119 -585 -268 -735 -320 -131 -45 -242 -70 -455 -102 -217 -33 -250 -41 -250
-62 0 -22 172 -187 274 -265 136 -102 307 -175 526 -224 112 -25 369 -23 525
4 129 23 378 91 513 141 201 74 486 221 692 356 52 35 134 84 182 110 49 26
90 51 94 56 3 5 10 9 16 9 6 0 8 -15 4 -43 l-7 -43 83 -86 c92 -95 147 -129
255 -154 82 -19 173 -14 257 15 65 23 80 20 50 -8 -28 -27 -91 -48 -164 -56
-126 -13 -254 32 -401 140 -53 39 -89 49 -89 25 0 -16 -204 -232 -289 -306
-151 -133 -364 -263 -554 -337 -55 -22 -60 -42 -19 -78 152 -138 508 -234 742
-200 152 23 347 105 476 201 38 28 150 134 249 235 111 113 196 191 223 204
l42 21 0 -22 c0 -13 -32 -102 -71 -198 -146 -362 -237 -637 -223 -675 9 -24
165 -20 242 5 133 44 270 102 320 137 66 45 154 147 182 211 48 106 90 226
120 338 17 65 33 127 36 137 3 9 12 17 21 17 18 0 14 -47 -15 -205 -18 -96
-25 -493 -9 -547 15 -55 35 -54 170 13 151 74 207 121 287 241 111 165 137
237 106 296 -30 58 -15 96 29 72 30 -16 64 2 133 72 63 63 122 176 153 293 39
142 27 505 -16 505 -7 0 -55 -20 -106 -44 -163 -77 -388 -136 -520 -136 -212
0 -482 137 -615 313 -54 71 -123 212 -150 307 -27 95 -27 377 0 470 24 82 83
222 158 373 32 64 63 138 69 163 36 142 -45 348 -196 500 -141 142 -342 241
-637 313 -195 48 -396 79 -993 151 -668 82 -1123 207 -1600 440 -207 101 -361
194 -565 340 -406 290 -763 644 -1029 1016 -74 105 -135 174 -152 174 -5 0
-14 -12 -19 -26z"/>
<path d="M16758 10946 c-10 -7 -48 -55 -84 -107 -359 -508 -801 -913 -1364
-1251 -476 -286 -1038 -474 -1695 -567 -135 -20 -501 -64 -635 -77 -107 -10
-367 -53 -490 -80 -171 -38 -262 -69 -395 -134 -298 -145 -450 -331 -495 -602
-12 -78 -2 -114 95 -310 133 -273 173 -425 162 -617 -14 -242 -124 -467 -291
-596 -175 -135 -402 -208 -586 -189 -79 8 -254 60 -408 120 -63 25 -120 43
-127 40 -21 -7 -30 -103 -30 -301 0 -115 5 -198 13 -230 18 -70 96 -195 167
-266 65 -65 91 -77 125 -59 36 19 47 -2 25 -50 -16 -36 -17 -49 -7 -96 29
-141 184 -353 304 -416 69 -36 216 -98 233 -98 8 0 23 12 32 27 16 24 18 55
18 293 0 239 -3 275 -23 369 -13 57 -20 106 -17 109 15 15 38 -36 80 -182 58
-198 106 -334 138 -389 42 -71 129 -144 220 -186 88 -41 248 -95 309 -106 101
-16 188 -3 188 30 0 20 -67 230 -96 299 -14 34 -54 135 -88 226 -35 91 -80
203 -101 248 -20 46 -34 86 -31 90 18 18 166 -99 266 -210 171 -190 266 -265
432 -342 226 -105 466 -129 688 -70 165 45 380 163 380 209 0 8 -24 24 -52 36
-179 78 -380 197 -525 311 -110 86 -263 238 -308 306 -15 23 -29 42 -32 42 -2
0 -44 -25 -94 -55 -148 -89 -253 -121 -374 -113 -75 5 -150 34 -183 72 -16 19
-16 19 3 11 149 -59 214 -67 318 -40 71 18 119 42 224 112 112 74 137 105 129
160 -10 73 -17 77 282 -118 532 -345 1037 -522 1492 -523 135 0 182 4 256 22
229 54 375 116 506 214 98 74 246 214 271 257 17 29 17 30 0 39 -10 5 -52 12
-93 16 -436 40 -824 170 -1370 461 -205 110 -236 120 -303 100 -28 -8 -82 -15
-121 -16 -90 -1 -118 -9 -132 -37 -21 -43 -309 -202 -436 -241 -174 -53 -484
-67 -571 -26 -43 20 -63 42 -26 29 38 -14 342 -6 441 11 171 30 409 126 527
213 43 32 35 37 -104 52 -134 14 -225 37 -374 96 -135 53 -191 81 -191 94 0
15 11 13 108 -25 235 -91 387 -118 642 -117 160 0 194 3 255 22 216 67 274 65
525 -20 435 -148 794 -220 1210 -245 131 -8 383 10 515 36 274 55 563 191 780
369 201 165 457 490 485 616 13 56 -6 56 -195 0 -139 -41 -366 -83 -520 -97
-181 -15 -628 -16 -820 0 -201 16 -490 48 -589 65 -269 45 -312 50 -334 34
-12 -8 -67 -68 -123 -134 -108 -127 -250 -262 -337 -320 -126 -85 -347 -169
-492 -188 -62 -8 -37 5 92 50 135 46 327 140 404 196 91 68 237 211 329 323
99 122 129 164 121 172 -3 3 -61 -1 -128 -11 -257 -35 -428 -45 -428 -27 0 6
19 12 43 15 375 48 446 62 612 117 109 37 194 82 291 155 216 162 386 373 494
609 23 50 48 102 56 117 7 14 14 29 14 33 0 13 -55 -6 -155 -55 -113 -55 -246
-102 -355 -125 -102 -21 -262 -45 -306 -45 -55 0 -36 24 27 33 273 40 491 111
689 226 78 45 123 83 248 205 85 83 188 194 230 246 148 182 285 440 432 810
21 52 45 112 54 132 51 118 129 773 96 813 -15 18 -20 18 -42 1z"/>
<path d="M9420 10031 c-176 -37 -329 -122 -475 -262 -128 -123 -212 -266 -266
-454 -30 -102 -37 -329 -14 -449 38 -206 118 -362 257 -504 58 -59 241 -192
265 -192 31 0 35 -32 40 -311 l5 -282 -269 7 c-147 3 -346 9 -440 13 l-173 6
0 -313 0 -313 128 6 c70 4 268 10 440 13 l312 7 0 -2244 c0 -1485 -3 -2272
-10 -2327 -35 -275 -138 -475 -295 -567 -107 -63 -179 -80 -345 -79 -162 0
-240 14 -404 71 -173 60 -312 140 -467 269 -101 84 -238 229 -316 334 -65 88
-185 303 -223 400 -49 122 -120 336 -120 358 l0 23 213 -6 c116 -3 259 -8 317
-10 58 -3 111 -1 119 4 23 15 -13 82 -84 161 -88 97 -218 248 -281 326 -145
179 -423 631 -560 910 -52 106 -101 195 -111 198 -31 12 -116 -91 -182 -222
-157 -311 -279 -795 -346 -1370 -18 -154 -35 -421 -28 -439 9 -22 29 -15 94
34 80 58 380 216 391 205 4 -4 13 -35 19 -67 6 -33 28 -118 50 -190 192 -628
443 -1040 838 -1375 235 -199 503 -355 971 -567 347 -157 573 -281 718 -392
106 -81 283 -266 372 -389 13 -17 27 -32 31 -32 4 0 43 42 86 92 166 196 257
281 428 399 112 78 276 162 675 346 141 65 372 183 488 250 560 319 914 737
1166 1373 58 148 166 481 166 514 0 6 6 20 13 29 11 15 28 7 177 -81 91 -54
187 -113 214 -130 28 -18 56 -32 63 -32 19 0 17 250 -2 410 -15 126 -24 183
-71 475 -74 464 -206 851 -369 1080 -59 83 -80 101 -100 85 -9 -7 -51 -85 -94
-174 -90 -187 -245 -467 -334 -605 -146 -227 -262 -377 -467 -601 -138 -150
-157 -178 -146 -205 5 -15 38 -16 331 -14 179 1 327 0 330 -2 5 -5 -78 -247
-121 -354 -93 -230 -223 -423 -424 -626 -168 -171 -303 -266 -500 -355 -135
-61 -246 -90 -406 -106 -93 -9 -126 -8 -210 6 -285 48 -445 219 -501 536 -17
100 -18 214 -18 2385 l0 2280 360 -2 c198 -2 395 -5 438 -9 l77 -5 0 312 0
312 -102 -6 c-57 -4 -255 -10 -440 -13 l-337 -7 5 284 c5 235 9 286 21 294 8
6 49 33 91 60 167 109 317 288 381 455 120 310 87 695 -81 946 -220 329 -595
491 -958 415z m272 -522 c153 -33 280 -160 324 -324 18 -67 18 -207 -1 -279
-8 -32 -27 -77 -41 -101 -28 -49 -96 -115 -118 -115 -8 0 -38 27 -67 60 -62
70 -87 80 -209 80 -94 -1 -103 -5 -155 -75 -37 -49 -44 -55 -74 -55 -35 0 -83
41 -129 109 -49 74 -66 157 -60 292 4 77 9 105 33 154 90 187 301 295 497 254z
m-26 -890 c16 -17 19 -36 18 -100 -1 -83 -16 -134 -43 -149 -22 -11 -98 -1
-112 16 -14 17 -33 158 -25 190 5 17 20 31 49 44 55 25 89 25 113 -1z"/>
<path d="M9550 8574 c-11 -28 -12 -116 -1 -153 3 -13 15 -29 24 -35 15 -9 23
-6 43 17 20 23 24 39 24 91 0 52 -4 66 -23 84 -31 29 -55 28 -67 -4z"/>
<path d="M18584 9694 c-22 -15 -62 -48 -90 -74 -118 -107 -375 -275 -571 -373
-169 -85 -489 -208 -813 -314 -138 -44 -507 -134 -690 -168 -80 -14 -164 -30
-187 -36 -23 -5 -106 -18 -185 -29 -79 -12 -150 -23 -159 -26 -9 -2 -33 -44
-54 -92 -74 -168 -126 -256 -226 -382 -166 -211 -387 -378 -601 -455 -59 -21
-91 -46 -80 -62 6 -10 68 -10 298 2 319 17 571 37 1129 91 158 15 411 57 575
95 529 124 903 366 1272 824 164 204 337 552 414 833 24 88 31 176 15 186 -5
3 -26 -6 -47 -20z"/>
<path d="M560 9671 c0 -152 138 -523 287 -776 138 -234 361 -483 574 -642 148
-110 383 -234 559 -295 226 -79 641 -160 985 -192 433 -42 621 -56 850 -66
138 -6 289 -15 337 -20 90 -11 144 -2 136 22 -3 7 -78 44 -169 83 -182 79
-211 96 -321 184 -142 114 -257 250 -355 421 -48 83 -123 247 -123 268 0 18
-14 22 -127 37 -339 44 -904 170 -1213 270 -570 184 -1050 430 -1305 669 -93
88 -115 94 -115 37z"/>
</g>
</svg>
